HIERARCHY
ROOT Hips
{
	OFFSET 0.00000 0.00000 0.00000
	CHANNELS 6 Xposition Yposition Zposition Zrotation Yrotation Xrotation 
	JOINT LHipJoint
	{
		OFFSET 0 0 0
		CHANNELS 3 Zrotation Yrotation Xrotation
		JOINT LeftHip
		{
			OFFSET 1.44960 -1.75505 0.85172
			CHANNELS 3 Zrotation Yrotation Xrotation
			JOINT LeftKnee
			{
				OFFSET 2.40573 -6.60971 0.00000
				CHANNELS 3 Zrotation Yrotation Xrotation
				JOINT LeftAnkle
				{
					OFFSET 2.58773 -7.10974 0.00000
					CHANNELS 3 Zrotation Yrotation Xrotation
					JOINT LeftToe
					{
						OFFSET 0.18252 -0.50147 1.77316
						CHANNELS 3 Zrotation Yrotation Xrotation
						End Site
						{
							OFFSET 0.00000 -0.00000 0.92990
						}
					}
				}
			}
		}
	}
	JOINT RHipJoint
	{
		OFFSET 0 0 0
		CHANNELS 3 Zrotation Yrotation Xrotation
		JOINT RightHip
		{
			OFFSET -1.40744 -1.75505 0.85172
			CHANNELS 3 Zrotation Yrotation Xrotation
			JOINT RightKnee
			{
				OFFSET -2.43714 -6.69600 0.00000
				CHANNELS 3 Zrotation Yrotation Xrotation
				JOINT RightAnkle
				{
					OFFSET -2.51650 -6.91404 0.00000
					CHANNELS 3 Zrotation Yrotation Xrotation
					JOINT RightToe
					{
						OFFSET -0.25383 -0.69740 1.96384
						CHANNELS 3 Zrotation Yrotation Xrotation
						End Site
						{
							OFFSET -0.00000 -0.00000 1.04244
						}
					}
				}
			}
		}
	}
	JOINT lowerback
	{
		OFFSET 0 0 0
		CHANNELS 3 Zrotation Yrotation Xrotation
		JOINT Chest
		{
			OFFSET 0.00579 2.14458 -0.24367
			CHANNELS 3 Zrotation Yrotation Xrotation
			JOINT Chest2
			{
				OFFSET 0.05899 2.16316 -0.04515
				CHANNELS 3 Zrotation Yrotation Xrotation
				JOINT lowerneck
				{
					OFFSET 0 0 0
					CHANNELS 3 Zrotation Yrotation Xrotation
					JOINT Neck
					{
						OFFSET -0.01650 1.59577 0.24841
						CHANNELS 3 Zrotation Yrotation Xrotation
						JOINT Head
						{
							OFFSET -0.01016 1.63072 -0.17782
							CHANNELS 3 Zrotation Yrotation Xrotation
							End Site
							{
								OFFSET -0.00250 1.64111 -0.08717
							}
						}
					}
				}
				JOINT LeftCollar
				{
					OFFSET 0 0 0
					CHANNELS 3 Zrotation Yrotation Xrotation
					JOINT LeftShoulder
					{
						OFFSET 3.17745 0.95174 -0.45729
CHANNELS 3 Zrotation Xrotation Yrotation
						JOINT LeftElbow
						{
OFFSET 0 -4.934850 0.000000
CHANNELS 3 Zrotation Xrotation Yrotation
							JOINT LeftWrist
							{
OFFSET 0 -3.417190 -0.000000
CHANNELS 3 Zrotation Xrotation Yrotation
								JOINT lhand
								{
									OFFSET 0 0 0
CHANNELS 3 Zrotation Xrotation Yrotation
									JOINT LFingers
									{
OFFSET 0 -0.624100 -0.000000
CHANNELS 3 Zrotation Xrotation Yrotation
										End Site
										{
OFFSET 0 -0.503170 -0.000000
										}
									}
								}
								JOINT LThumb
								{
OFFSET 0 0.000000 0.000000
CHANNELS 3 Zrotation Xrotation Yrotation
									End Site
									{
OFFSET 0 -0.510850 0.510850
									}
								}
							}
						}
					}
				}
				JOINT RightCollar
				{
					OFFSET 0 0 0
					CHANNELS 3 Zrotation Yrotation Xrotation
					JOINT RightShoulder
					{
						OFFSET -2.87924 1.13038 -0.75204
CHANNELS 3 Zrotation Xrotation Yrotation
						JOINT RightElbow
						{
OFFSET 0 -5.220340 0.000000
CHANNELS 3 Zrotation Xrotation Yrotation
							JOINT RightWrist
							{
OFFSET 0 -3.418090 -0.000000
CHANNELS 3 Zrotation Xrotation Yrotation
								JOINT rhand
								{
									OFFSET 0 0 0
CHANNELS 3 Zrotation Xrotation Yrotation
									JOINT RFingers
									{
OFFSET 0 -0.775340 -0.000000
CHANNELS 3 Zrotation Xrotation Yrotation
										End Site
										{
OFFSET 0 -0.625100 -0.000000
										}
									}
								}
								JOINT RThumb
								{
OFFSET 0 0.000000 0.000000
CHANNELS 3 Zrotation Xrotation Yrotation
									End Site
									{
OFFSET 0 -0.634640 0.634640
									}
								}
							}
						}
					}
				}
			}
		}
	}
}
MOTION
Frames: 10
Frame Time: 0.008333333333333333
0.841447 17.459644 -15.562172 -6.296671 4.397657 3.495183 0.000000 0.000000 0.000000 -9.827070 -7.217516 -24.099860 8.136565 16.218405 53.052469 0.748499 -6.586674 -15.448607 0.094007 1.969996 5.422933 0.000000 0.000000 0.000000 31.583336 3.098554 -5.932646 -1.251911 -7.093588 19.992967 -0.827994 -0.451101 -17.365406 -0.510062 -4.577794 12.708127 5.149342 0.034682 4.318462 4.651004 0.402816 0.330286 1.885344 0.175426 -2.083885 -3.160310 -0.228163 -17.115896 0.364123 0.447626 17.884408 0.696941 0.033142 8.381880 0.000000 0.000000 0.000000 1.923365 5.617288 -26.305716 25.687987 -36.898987 8.699605 2.675003 3.341882 -42.817028 0.000000 0.000000 0.000000 -7.125000 0.000000 0.000000 -46.972756 67.110170 27.372966 0.000000 0.000000 0.000000 -7.192458 -2.217990 -13.809355 -8.097440 -13.710670 -0.975135 -14.908653 -0.097596 -13.295107 0.000000 0.000000 0.000000 7.125000 0.000000 0.000000 8.554937 16.337287 5.869185
0.847045 17.443035 -15.433875 -6.170500 4.177396 3.521586 0.000000 0.000000 0.000000 -10.047323 -7.690458 -24.988583 7.842053 16.001343 51.991023 0.813767 -6.255244 -16.083840 0.093872 1.941708 5.345658 0.000000 0.000000 0.000000 31.574967 3.538432 -5.250760 -1.251032 -7.091209 19.985867 -0.853138 -0.817207 -17.767047 -0.474223 -4.414357 12.245708 4.967348 0.039798 4.284646 4.618124 0.393118 0.391065 1.952946 0.173224 -2.002924 -3.278427 -0.342755 -17.635066 0.391941 0.336867 18.115396 0.714041 -0.027554 8.554670 0.000000 0.000000 0.000000 1.764357 5.132339 -26.191784 25.772801 -36.983409 8.750639 2.596040 3.472982 -42.971704 0.000000 0.000000 0.000000 -7.125000 0.000000 0.000000 -47.322688 67.189009 27.694281 0.000000 0.000000 0.000000 -7.230370 -2.646726 -13.173592 -8.313261 -14.059222 -1.027079 -15.072461 -0.618117 -13.671529 0.000000 0.000000 0.000000 7.125000 0.000000 0.000000 8.442199 15.941286 5.864067
0.843782 17.425866 -15.303987 -6.141756 4.218929 3.425401 0.000000 0.000000 0.000000 -10.136171 -8.222657 -25.657215 7.539619 15.769492 50.886309 0.867841 -5.971065 -16.611375 0.085181 1.870737 5.148963 0.000000 0.000000 0.000000 31.708032 3.474964 -4.537362 -1.235602 -7.049050 19.860685 -0.881940 -1.051065 -18.152240 -0.444218 -4.276483 11.855848 4.953708 0.100843 4.349619 4.418315 0.483971 0.243665 1.748296 0.214412 -2.189804 -3.126093 -0.415877 -17.290747 0.709066 0.114623 18.174108 0.768735 -0.087897 8.516046 0.000000 0.000000 0.000000 2.279259 5.421520 -26.955866 26.278375 -37.481540 9.056797 2.315217 3.098285 -43.390551 0.000000 0.000000 0.000000 -7.125000 0.000000 0.000000 -48.343313 67.377748 28.599587 0.000000 0.000000 0.000000 -6.856310 -2.481127 -12.501157 -8.572054 -14.475819 -1.090748 -15.087273 -1.669993 -14.035037 0.000000 0.000000 0.000000 7.125000 0.000000 0.000000 8.433340 15.569431 5.925522
0.847027 17.416316 -15.180833 -6.027638 4.392363 3.362587 0.000000 0.000000 0.000000 -10.359619 -8.905587 -26.396718 7.217029 15.511557 49.689656 0.924706 -5.515741 -17.160936 0.029033 1.097070 3.015851 0.000000 0.000000 0.000000 31.675165 3.190898 -3.946882 -1.207062 -6.970077 19.626690 -0.916585 -1.079912 -18.511191 -0.500912 -4.534813 12.586769 4.871661 -0.024071 4.633423 4.361434 0.346899 0.068706 1.744869 0.140711 -2.531292 -3.194907 -0.248521 -17.070084 0.549627 0.390915 18.366988 0.760602 0.018523 8.537292 0.000000 0.000000 0.000000 2.288867 5.687136 -27.244905 26.825196 -38.011986 9.391270 2.460501 3.071493 -42.765101 0.000000 0.000000 0.000000 -7.125000 0.000000 0.000000 -47.080670 67.009829 27.345006 0.000000 0.000000 0.000000 -6.855716 -2.360720 -11.676972 -8.842005 -14.908247 -1.159107 -15.105954 -2.234116 -13.557639 0.000000 0.000000 0.000000 7.125000 0.000000 0.000000 8.419331 16.054837 5.826889
0.837615 17.396597 -15.061951 -6.337894 4.784587 3.471467 0.000000 0.000000 0.000000 -9.950266 -9.661304 -27.346835 6.876664 15.225987 48.404252 0.964173 -5.356343 -17.537655 0.025173 0.953571 2.621643 0.000000 0.000000 0.000000 32.254465 3.356926 -3.481147 -1.183198 -6.903076 19.428565 -0.916964 -1.857550 -18.851664 -0.452828 -4.314471 11.963523 5.031185 -0.191564 4.510950 4.446059 0.125499 0.056046 1.758286 0.029979 -2.476649 -3.102352 -0.199987 -17.423189 0.589741 0.438265 18.540954 0.766222 0.049603 8.658412 0.000000 0.000000 0.000000 2.215306 5.230359 -27.114215 26.764611 -37.953772 9.354003 2.839907 3.539186 -42.194030 0.000000 0.000000 0.000000 -7.125000 0.000000 0.000000 -45.738290 66.737583 26.162496 0.000000 0.000000 0.000000 -6.800340 -2.765526 -11.104796 -9.011689 -15.178885 -1.203352 -14.943458 -3.057395 -14.310927 0.000000 0.000000 0.000000 7.125000 0.000000 0.000000 8.532226 15.300338 6.046778
0.844136 17.381064 -14.937771 -6.201924 4.648737 3.567766 0.000000 0.000000 0.000000 -10.207762 -10.150835 -28.069060 6.504072 14.898882 46.971237 0.992431 -4.867790 -17.830407 0.002702 0.311064 0.854645 0.000000 0.000000 0.000000 32.149844 3.195368 -2.926578 -1.132654 -6.759220 19.003958 -0.925239 -1.709247 -18.865808 -0.452454 -4.314625 11.963762 4.901601 -0.097452 4.398576 4.321790 0.229843 0.081254 1.694176 0.083941 -2.386309 -2.743398 -0.333923 -17.844136 0.269369 0.241396 18.708718 0.574626 -0.053948 8.795952 0.000000 0.000000 0.000000 2.557712 4.968983 -27.859421 27.087917 -38.262383 9.553731 2.159165 3.138619 -42.618324 0.000000 0.000000 0.000000 -7.125000 0.000000 0.000000 -47.111632 66.817240 27.176086 0.000000 0.000000 0.000000 -6.667710 -2.989240 -10.788549 -9.240292 -15.542483 -1.263787 -15.036859 -3.569089 -14.546433 0.000000 0.000000 0.000000 7.125000 0.000000 0.000000 8.470134 15.052711 6.047170
0.845677 17.384736 -14.812354 -6.144618 4.764801 3.640598 0.000000 0.000000 0.000000 -10.313919 -10.723088 -28.756392 6.093374 14.517378 45.353709 1.003474 -4.648736 -17.947244 0.000817 0.075913 0.208609 0.000000 0.000000 0.000000 32.212481 3.130109 -2.231283 -1.075231 -6.591105 18.509683 -0.936573 -1.957717 -19.087962 -0.524230 -4.638164 12.879587 4.784756 -0.097448 4.390849 4.257467 0.233173 -0.094959 1.693548 0.082906 -2.564339 -2.921937 -0.473139 -16.733706 0.654138 -0.028708 17.585103 0.696719 -0.142269 8.220835 0.000000 0.000000 0.000000 2.677562 4.984060 -28.244286 27.109040 -38.282963 9.566622 2.488193 3.287575 -41.513735 0.000000 0.000000 0.000000 -7.125000 0.000000 0.000000 -44.944568 66.158301 25.070109 0.000000 0.000000 0.000000 -6.519442 -2.573843 -9.931894 -9.638706 -16.172480 -1.372575 -15.187499 -4.512990 -14.503069 0.000000 0.000000 0.000000 7.125000 0.000000 0.000000 8.367563 15.084209 5.966581
0.840150 17.377323 -14.684948 -6.425502 4.896860 3.553793 0.000000 0.000000 0.000000 -10.010147 -11.172979 -29.137085 5.660130 14.088688 43.598047 0.932171 -5.089674 -17.254077 0.015715 0.322404 0.886599 0.000000 0.000000 0.000000 32.689772 2.992256 -1.357215 -1.001657 -6.367928 17.856014 -0.912754 -2.378788 -19.055021 -0.466693 -4.381072 12.151437 4.966035 -0.210489 4.523206 4.279056 0.106490 -0.139304 1.624301 0.015580 -2.685363 -2.915020 -0.486864 -17.070334 0.791199 -0.066759 17.627588 0.737225 -0.145792 8.295147 0.000000 0.000000 0.000000 2.733424 4.955825 -28.305448 27.313379 -38.476311 9.693508 2.077272 3.106223 -43.098143 0.000000 0.000000 0.000000 -7.125000 0.000000 0.000000 -48.030288 67.113725 28.106156 0.000000 0.000000 0.000000 -6.443632 -2.715288 -9.295828 -9.777440 -16.390249 -1.411900 -15.427440 -5.037579 -14.790745 0.000000 0.000000 0.000000 7.125000 0.000000 0.000000 8.207143 14.770338 5.905733
0.855710 17.374406 -14.546357 -6.072676 4.891914 3.602882 0.000000 0.000000 0.000000 -10.591608 -11.574822 -29.490556 5.216123 13.621490 41.744822 0.858596 -4.927587 -16.544531 0.014905 -0.266659 -0.732611 0.000000 0.000000 0.000000 32.303851 2.608798 -0.466622 -0.907771 -6.070556 16.989579 -0.889861 -2.382754 -18.831349 -0.492910 -4.501433 12.491775 4.731066 -0.238923 4.350950 4.108434 0.034090 -0.087984 1.581642 -0.016259 -2.535394 -2.962854 -0.428320 -16.929217 0.829461 0.013718 17.661010 0.767675 -0.107415 8.279867 0.000000 0.000000 0.000000 2.747606 4.786543 -28.475761 27.432674 -38.588677 9.767792 2.617755 3.419180 -42.777535 0.000000 0.000000 0.000000 -7.125000 0.000000 0.000000 -46.955717 67.065936 27.316982 0.000000 0.000000 0.000000 -6.387769 -2.942036 -8.894076 -9.951577 -16.663833 -1.461000 -15.568379 -5.501506 -14.951216 0.000000 0.000000 0.000000 7.125000 0.000000 0.000000 8.113670 14.594147 5.867633
0.851116 17.372191 -14.422797 -6.223480 4.671213 3.737697 0.000000 0.000000 0.000000 -10.368176 -11.810405 -30.125271 4.782213 13.133278 39.871164 0.809600 -4.874628 -16.057037 0.003065 -0.274411 -0.753945 0.000000 0.000000 0.000000 32.604349 2.783841 0.475788 -0.809642 -5.741097 16.035352 -0.857871 -2.808487 -18.728059 -0.540314 -4.709493 13.081781 4.609327 -0.082522 4.365809 4.127624 0.243237 -0.175129 1.656405 0.087745 -2.632856 -2.557237 -0.670656 -17.204573 0.502579 -0.348393 17.801492 0.547750 -0.285868 8.381955 0.000000 0.000000 0.000000 2.877637 4.595387 -28.765973 27.265685 -38.431365 9.663868 -0.289622 1.896908 -45.354191 0.000000 0.000000 0.000000 -7.125000 0.000000 0.000000 -54.455608 67.752655 33.493982 0.000000 0.000000 0.000000 -6.391576 -2.762815 -8.005679 -10.131462 -16.944939 -1.513019 -15.849410 -6.751884 -15.782517 0.000000 0.000000 0.000000 7.125000 0.000000 0.000000 7.937111 13.719299 5.886343
